<?xml version="1.0" standalone="no"?><!DOCTYPE svg PUBLIC "-//W3C//DTD SVG 1.1//EN" "http://www.w3.org/Graphics/SVG/1.1/DTD/svg11.dtd"><svg t="1592477226853" class="icon" viewBox="0 0 1024 1024" version="1.1" xmlns="http://www.w3.org/2000/svg" p-id="7744" xmlns:xlink="http://www.w3.org/1999/xlink" width="48" height="48"><defs><style type="text/css"></style></defs><path d="M189.802481 412.220451l199.20318-200.181957a60.23922 60.23922 0 0 0-99.879651-23.624096L23.29932 455.553538a79.992701 79.992701 0 0 0 0 112.848434l265.804445 267.161385a60.28371 60.28371 0 0 0 99.901896-23.579606l-199.225425-200.204202c-54.744727-55.056155-54.722482-144.569678 0.022245-199.559098z" p-id="7745" fill="#707070"></path><path d="M1022.674203 703.828992c-31.053896-132.512936-128.375383-317.123455-420.562292-356.141029v-116.830274a60.23922 60.23922 0 0 0-102.904959-42.465536L233.358017 455.553538a80.014946 80.014946 0 0 0-0.022245 112.848434l265.82669 267.13914a60.10575 60.10575 0 0 0 65.644733 13.168987 60.216975 60.216975 0 0 0 37.282471-55.612278V680.026937c99.968631 0.08898 243.870962 13.257967 346.219799 77.034128a49.450438 49.450438 0 0 0 55.011665-1.779593 49.316968 49.316968 0 0 0 19.353073-51.45248z" p-id="7746" fill="#707070"></path></svg>