<svg width="48" height="48" viewBox="0 0 1024 1024" xmlns="http://www.w3.org/2000/svg" xmlns:xlink="http://www.w3.org/1999/xlink" overflow="hidden"><defs></defs><path d="M298.048 266.752 425.44 496.128C432.162 508.216 432.162 522.92 425.44 535.008L298.16 763.776 728.464 515.296 298.064 266.752ZM228.032 239.536C219.456 224.083 225.031 204.604 240.483 196.028 250.306 190.576 262.268 190.675 272 196.288L776.448 487.584C791.753 496.421 796.996 515.992 788.159 531.297 785.35 536.161 781.312 540.2 776.448 543.008L272.048 834.272C256.743 843.109 237.172 837.866 228.335 822.561 222.71 812.819 222.613 800.839 228.08 791.008L381.328 515.552 228.032 239.536Z" fill="#707070"/></svg>